<svg xmlns="http://www.w3.org/2000/svg" version="1.1" xmlns:xlink="http://www.w3.org/1999/xlink" xmlns:svgjs="http://svgjs.dev/svgjs" width="2000" height="979" viewBox="0 0 2000 979"><g transform="matrix(1,0,0,1,-1.2121208487450303,0.38332081007399665)"><svg viewBox="0 0 396 194" data-background-color="#ffffff" preserveAspectRatio="xMidYMid meet" height="979" width="2000" xmlns="http://www.w3.org/2000/svg" xmlns:xlink="http://www.w3.org/1999/xlink"><g id="tight-bounds" transform="matrix(1,0,0,1,0.24000007194854334,-0.07595938422304016)"><svg viewBox="0 0 395.52 194.1519174684273" height="194.1519174684273" width="395.52"><g><svg viewBox="0 0 395.52 194.1519174684273" height="194.1519174684273" width="395.52"><g transform="matrix(1,0,0,1,0,119.99367398411772)"><svg viewBox="0 0 395.52 74.1582434843096" height="74.1582434843096" width="395.52"><g id="textblocktransform"><svg viewBox="0 0 395.52 74.1582434843096" height="74.1582434843096" width="395.52" id="textblock"><g><svg viewBox="0 0 395.52 74.1582434843096" height="74.1582434843096" width="395.52"><g transform="matrix(1,0,0,1,0,0)"><svg width="395.52" viewBox="2.9000000953674316 -37.099998474121094 262.1300048828125 49.1519660949707" height="74.1582434843096" data-palette-color="#7a26c1"><path d="M2.9 0.6L3.2-1.7Q5.5-2.15 6.3-3.03 7.1-3.9 7.1-6L7.1-6 7.15-27Q7.15-28.6 6.78-29.15 6.4-29.7 5.3-29.7L5.3-29.7Q4.8-29.7 4.3-29.65 3.8-29.6 3.6-29.6L3.6-29.6 3.5-29.8 3.85-32Q4.5-31.95 6.48-31.9 8.45-31.85 10.8-31.85L10.8-31.85Q20.65-31.85 24.85-32.45L24.85-32.45 25-32.15Q24.95-31.85 24.73-30.75 24.5-29.65 24.25-27.7 24-25.75 23.85-23.7L23.85-23.7 21.45-23.5Q21.45-23.75 21.5-24.45 21.55-25.15 21.55-25.8L21.55-25.8Q21.55-27.55 21.13-28.23 20.7-28.9 19.4-29.13 18.1-29.35 14.85-29.35L14.85-29.35Q13.1-29.35 12.45-29.25 11.8-29.15 11.6-28.78 11.4-28.4 11.35-27.4L11.35-27.4 10.95-16.85 16.1-16.8Q17.05-16.8 18.9-17.03 20.75-17.25 21.35-17.35L21.35-17.35 21.55-17.1 20.85-14.1Q20.2-14.15 18.43-14.2 16.65-14.25 14.7-14.25L14.7-14.25Q12.85-14.25 10.85-13.9L10.85-13.9 10.65-5.6Q10.65-3.55 11.1-2.88 11.55-2.2 12.85-2.2L12.85-2.2Q13.85-2.2 14.93-2.27 16-2.35 16.4-2.35L16.4-2.35 16.5-2.15 16.05 0.2Q15.25 0.15 13.08 0.08 10.9 0 8.6 0L8.6 0Q7.05 0 5.25 0.25 3.45 0.5 2.9 0.6L2.9 0.6ZM30.1-17.35Q30.1-20.05 28.25-20.05L28.25-20.05Q27.9-20.05 27.5-19.98 27.1-19.9 27-19.85L27-19.85 27.2-21.7Q29.15-22 31.4-22.53 33.65-23.05 34.35-23.2L34.35-23.2 34.65-22.6Q34.15-21.3 33.75-16.7 33.35-12.1 33.35-7.75L33.35-7.75Q33.35-2.85 37.35-2.85L37.35-2.85Q38.85-2.85 40.15-3.58 41.45-4.3 43.4-5.7L43.4-5.7 43.4-17.3Q43.4-18.8 42.85-19.4 42.3-20 40.9-20L40.9-20 39.7-19.95 39.9-21.75Q42.1-22.05 44.5-22.55 46.9-23.05 47.6-23.2L47.6-23.2 47.9-22.6Q47.45-21.45 47.12-16.35 46.8-11.25 46.8-5.25L46.8-5.25Q46.8-4.15 47.35-3.55 47.9-2.95 48.85-2.95L48.85-2.95Q49.55-2.95 50.22-3.23 50.9-3.5 51.32-3.8 51.75-4.1 51.85-4.2L51.85-4.2 52.55-3.4Q52.35-3.1 51.62-2.15 50.9-1.2 49.92-0.3 48.95 0.6 48.2 0.6L48.2 0.6Q44.15 0.6 43.75-3.45L43.75-3.45 43.5-3.55Q41.1-1.7 39.17-0.55 37.25 0.6 36.55 0.6L36.55 0.6Q33.35 0.6 31.62-0.9 29.9-2.4 29.9-5.2L29.9-5.2 30.1-17.35ZM69-1.45Q70.5-1.85 71.15-2.63 71.8-3.4 71.8-4.7L71.8-4.7 72-14.6Q72-17.1 70.92-18.45 69.84-19.8 67.84-19.8L67.84-19.8Q66.25-19.8 64.59-18.98 62.95-18.15 61.7-17.2L61.7-17.2Q61.25-6.85 61.25-4.9L61.25-4.9Q61.25-3.35 61.65-2.73 62.05-2.1 63.05-2.1L63.05-2.1Q63.6-2.1 64.09-2.15 64.59-2.2 64.8-2.2L64.8-2.2 64.9-2 64.45 0.15Q64 0.1 62.7 0.05 61.4 0 59.9 0L59.9 0Q58.6 0 57.02 0.13 55.45 0.25 54.95 0.3L54.95 0.3 55.2-1.75Q56.65-2 57.25-2.65 57.85-3.3 57.85-4.7L57.85-4.7 57.85-16.9Q57.85-18.6 57.3-19.28 56.75-19.95 55.4-19.95L55.4-19.95 54.85-19.95 54.7-20.15 54.85-21.8Q57-22.15 59.12-22.63 61.25-23.1 61.85-23.25L61.85-23.25 62.15-22.85Q62.05-22.55 61.85-21.58 61.65-20.6 61.6-19.55L61.6-19.55 61.7-19.4Q67.4-23.2 69.05-23.2L69.05-23.2Q72.2-23.2 74.05-21.45 75.9-19.7 75.9-16.75L75.9-16.75Q75.9-16.25 75.59-12.15L75.59-12.15Q75.2-6.95 75.2-4.9L75.2-4.9Q75.2-3.45 75.59-2.78 76-2.1 76.95-2.1L76.95-2.1Q77.5-2.1 78-2.15 78.5-2.2 78.7-2.2L78.7-2.2 78.8-2 78.4 0.15Q77.95 0.1 76.7 0.05 75.45 0 73.95 0L73.95 0Q72.65 0 70.97 0.25 69.3 0.5 68.8 0.6L68.8 0.6 69-1.45ZM96.64 0.5L96.49 0.15 96.69-1.8Q99.24-2 100.19-2.4 101.14-2.8 101.14-3.7L101.14-3.7Q101.14-4.7 100.69-6.1L100.69-6.1 99.04-11.55Q97.84-11.6 93.84-11.6L93.84-11.6Q91.44-11.6 88.39-11.2L88.39-11.2 86.54-6Q86.09-4.65 86.09-4.05L86.09-4.05Q86.09-2.95 86.79-2.48 87.49-2 89.09-2L89.09-2 91.94-2 92.04-1.8 91.74 0.35Q91.14 0.3 88.99 0.15 86.84 0 84.79 0L84.79 0Q82.94 0 81.37 0.05 79.79 0.1 79.29 0.15L79.29 0.15 79.69-2.2Q81.09-2.35 81.94-3.18 82.79-4 83.59-6.05L83.59-6.05 93.34-31.6 96.49-32.45 96.89-32.45Q97.19-31.25 98.42-26.9 99.64-22.55 101.42-16.6 103.19-10.65 104.84-5.65L104.84-5.65Q105.44-3.8 106.44-3.05 107.44-2.3 109.64-2.1L109.64-2.1 109.74-1.9 109.39 0.15Q108.79 0.15 107.22 0.08 105.64 0 104.09 0L104.09 0Q101.69 0 99.47 0.2 97.24 0.4 96.64 0.5L96.64 0.5ZM89.29-13.65L93.69-13.65Q95.49-13.65 98.34-13.9L98.34-13.9 94.39-27 94.04-27 89.29-13.65ZM120.74 0.6Q115.99 0.6 113.14-2.4 110.29-5.4 110.29-10.45L110.29-10.45Q110.29-14 111.82-16.93 113.34-19.85 115.97-21.53 118.59-23.2 121.84-23.2L121.84-23.2Q123.24-23.2 124.54-23 125.84-22.8 126.67-22.58 127.49-22.35 127.69-22.25L127.69-22.25 127.84-21.9Q127.79-21.65 127.57-20.73 127.34-19.8 127.09-18.28 126.84-16.75 126.79-15L126.79-15 124.74-14.85 124.74-16.4Q124.74-18.25 123.62-19.38 122.49-20.5 120.64-20.5L120.64-20.5Q117.59-20.5 115.94-18.32 114.29-16.15 114.29-12.15L114.29-12.15Q114.29-7.8 116.12-5.28 117.94-2.75 121.09-2.75L121.09-2.75Q122.34-2.75 123.59-3.13 124.84-3.5 125.69-3.88 126.54-4.25 126.74-4.4L126.74-4.4 127.04-4.3 127.59-2.75Q127.24-2.5 126.07-1.7 124.89-0.9 123.37-0.15 121.84 0.6 120.74 0.6L120.74 0.6ZM147.79 0.6Q143.74 0.6 143.34-3.45L143.34-3.45 143.14-3.5Q141.34-1.7 139.86-0.65 138.39 0.4 137.64 0.4L137.64 0.4Q134.84 0.4 133.04-1.35 131.24-3.1 131.24-5.8L131.24-5.8Q131.24-7.25 131.96-8.35 132.69-9.45 133.89-9.8L133.89-9.8 143.39-12.4 143.44-14.6Q143.44-17.1 142.29-18.5 141.14-19.9 139.04-19.9L139.04-19.9Q137.64-19.9 136.09-19.25 134.54-18.6 133.04-17.4L133.04-17.4 132.79-17.55 132.19-19.7Q134.54-21.05 136.91-22.13 139.29-23.2 140.34-23.2L140.34-23.2Q143.59-23.2 145.44-21.5 147.29-19.8 147.29-16.75L147.29-16.75Q147.29-15.65 146.94-12.25L146.94-12.25Q146.39-6.75 146.39-5.25L146.39-5.25Q146.39-4.15 146.94-3.55 147.49-2.95 148.44-2.95L148.44-2.95Q149.24-2.95 150.09-3.33 150.94-3.7 151.44-4.2L151.44-4.2 152.14-3.4Q151.39-2.15 150.21-0.98 149.04 0.2 147.79 0.6L147.79 0.6ZM138.49-3Q139.44-3 140.71-3.68 141.99-4.35 143.04-5.4L143.04-5.4 143.29-10.5 136.49-8.45Q135.04-8 135.04-6.35L135.04-6.35Q135.04-4.9 136.01-3.95 136.99-3 138.49-3L138.49-3ZM174.99 0.6Q171.09 0.6 170.54-2.95L170.54-2.95 170.19-3.1Q164.99 0.45 163.94 0.45L163.94 0.45Q161.09 0.45 158.89-0.88 156.69-2.2 155.49-4.6 154.29-7 154.29-10.1L154.29-10.1Q154.29-13.65 155.96-16.65 157.64-19.65 160.51-21.43 163.39-23.2 166.74-23.2L166.74-23.2Q168.34-23.2 170.19-23L170.19-23 170.19-31.3Q170.19-34 168.34-34L168.34-34Q167.99-34 167.59-33.93 167.19-33.85 167.09-33.8L167.09-33.8 167.29-35.65Q169.44-35.95 171.74-36.45 174.04-36.95 174.69-37.1L174.69-37.1 174.99-36.45Q174.44-35.6 174.01-25.9 173.59-16.2 173.59-5.25L173.59-5.25Q173.59-4.15 174.14-3.55 174.69-2.95 175.64-2.95L175.64-2.95Q176.34-2.95 177.01-3.23 177.69-3.5 178.11-3.8 178.54-4.1 178.64-4.2L178.64-4.2 179.34-3.4Q179.19-3.15 178.59-2.33 177.99-1.5 177.01-0.6 176.04 0.3 174.99 0.6L174.99 0.6ZM164.74-2.8Q165.79-2.8 167.01-3.4 168.24-4 169.09-4.63 169.94-5.25 170.19-5.45L170.19-5.45 170.19-19.15Q170.04-19.25 169.44-19.53 168.84-19.8 167.76-20.05 166.69-20.3 165.34-20.3L165.34-20.3Q161.99-20.3 160.06-18.03 158.14-15.75 158.14-11.8L158.14-11.8Q158.14-9.3 159.01-7.25 159.89-5.2 161.41-4 162.94-2.8 164.74-2.8L164.74-2.8ZM191.63 0.6Q188.53 0.6 186.13-0.78 183.73-2.15 182.43-4.67 181.13-7.2 181.13-10.45L181.13-10.45Q181.13-13.8 182.66-16.75 184.18-19.7 186.73-21.45 189.28-23.2 192.18-23.2L192.18-23.2Q195.83-23.2 197.73-21.35 199.63-19.5 199.63-15.95L199.63-15.95Q199.63-14.5 199.33-13.5L199.33-13.5 198.68-12.9 184.88-12.9Q184.83-8.05 186.81-5.43 188.78-2.8 192.33-2.8L192.33-2.8Q195.13-2.8 198.43-4.35L198.43-4.35 198.73-4.25 199.28-2.8Q197.48-1.5 195.31-0.45 193.13 0.6 191.63 0.6L191.63 0.6ZM185.08-14.75L194.13-15.2Q194.88-15.3 195.13-15.55 195.38-15.8 195.38-16.55L195.38-16.55Q195.38-18.55 194.31-19.6 193.23-20.65 191.23-20.65L191.23-20.65Q188.88-20.65 187.21-19.05 185.53-17.45 185.08-14.75L185.08-14.75ZM217.98-1.45Q219.48-1.85 220.13-2.63 220.78-3.4 220.78-4.7L220.78-4.7 220.98-14.6Q220.98-17.1 219.91-18.45 218.83-19.8 216.83-19.8L216.83-19.8Q215.23-19.8 213.58-18.98 211.93-18.15 210.68-17.2L210.68-17.2Q210.23-6.85 210.23-4.9L210.23-4.9Q210.23-3.35 210.63-2.73 211.03-2.1 212.03-2.1L212.03-2.1Q212.58-2.1 213.08-2.15 213.58-2.2 213.78-2.2L213.78-2.2 213.88-2 213.43 0.15Q212.98 0.1 211.68 0.05 210.38 0 208.88 0L208.88 0Q207.23 0 205.83 0.05 204.43 0.1 203.93 0.1L203.93 0.1 204.23-1.95Q205.68-2.1 206.26-2.7 206.83-3.3 206.83-4.7L206.83-4.7 206.83-16.9Q206.83-18.6 206.28-19.28 205.73-19.95 204.38-19.95L204.38-19.95 203.83-19.95 203.68-20.15 203.83-21.8Q205.98-22.15 208.11-22.63 210.23-23.1 210.83-23.25L210.83-23.25 211.13-22.85Q211.03-22.55 210.83-21.58 210.63-20.6 210.58-19.55L210.58-19.55 210.68-19.4Q216.28-23.2 218.03-23.2L218.03-23.2Q220.43-23.2 222.08-22.18 223.73-21.15 224.43-19.25L224.43-19.25Q226.23-20.55 228.48-21.88 230.73-23.2 231.98-23.2L231.98-23.2Q235.13-23.2 236.98-21.45 238.83-19.7 238.83-16.75L238.83-16.75Q238.83-16.25 238.53-12.15L238.53-12.15Q238.13-6.95 238.13-4.9L238.13-4.9Q238.13-3.35 238.53-2.73 238.93-2.1 239.93-2.1L239.93-2.1Q240.48-2.1 240.98-2.15 241.48-2.2 241.68-2.2L241.68-2.2 241.78-2 241.33 0.15Q240.88 0.1 239.58 0.05 238.28 0 236.78 0L236.78 0Q235.48 0 233.91 0.13 232.33 0.25 231.83 0.3L231.83 0.3 232.08-1.75Q233.53-2 234.13-2.65 234.73-3.3 234.73-4.7L234.73-4.7 234.93-14.6Q234.93-17.1 233.86-18.45 232.78-19.8 230.78-19.8L230.78-19.8Q228.18-19.8 224.73-17.3L224.73-17.3 224.18-4.9Q224.18-3.45 224.58-2.78 224.98-2.1 225.93-2.1L225.93-2.1Q226.48-2.1 226.98-2.15 227.48-2.2 227.68-2.2L227.68-2.2 227.78-2 227.38 0.15Q226.93 0.1 225.68 0.05 224.43 0 222.93 0L222.93 0Q221.63 0 219.96 0.25 218.28 0.5 217.78 0.6L217.78 0.6 217.98-1.45ZM244.18 12.05Q243.78 12.05 242.88 10.88 241.98 9.7 241.98 9.2L241.98 9.2 242.23 8.85Q245.03 8.85 247.45 6.53 249.88 4.2 251.63 0L251.63 0Q247.78-12.2 245.43-18.4L245.43-18.4Q244.98-19.65 244.15-20.2 243.33-20.75 242.03-20.8L242.03-20.8 241.93-21 242.23-22.65 246.38-22.6Q248.23-22.6 250.05-22.75 251.88-22.9 252.38-22.95L252.38-22.95 252.48-22.7 252.18-21.15Q250.48-21.1 249.9-20.83 249.33-20.55 249.33-19.85L249.33-19.85Q249.33-19.05 250.3-15.7 251.28-12.35 252.33-9.03 253.38-5.7 253.73-4.7L253.73-4.7 253.93-4.7Q259.68-18.45 259.68-19.65L259.68-19.65Q259.68-20.95 257.78-20.95L257.78-20.95 255.48-20.95 255.38-21.15 255.68-22.8Q256.13-22.75 257.68-22.68 259.23-22.6 260.78-22.6L260.78-22.6 265.03-22.65 264.68-20.8Q263.58-20.6 263-20.03 262.43-19.45 261.88-17.95L261.88-17.95 255.53-2.75Q252.93 3.55 251.28 6.6 249.63 9.65 248.03 10.88 246.43 12.1 244.18 12.05L244.18 12.05Z" opacity="1" transform="matrix(1,0,0,1,0,0)" fill="#7a26c1" class="undefined-text-0" data-fill-palette-color="primary" id="text-0"></path></svg></g></svg></g></svg></g></svg></g><g transform="matrix(1,0,0,1,100.98028488418059,0)"><svg viewBox="0 0 193.5594302316388 102.48669249531585" height="102.48669249531585" width="193.5594302316388"><g><svg xmlns="http://www.w3.org/2000/svg" xmlns:xlink="http://www.w3.org/1999/xlink" version="1.1" x="8" y="0" viewBox="4.75 22.810998916625977 87.05699920654297 50.249000549316406" enable-background="new 0 0 96 96" xml:space="preserve" height="102.48669249531585" width="177.5594302316388" class="icon-icon-0" data-fill-palette-color="accent" id="icon-0"><path d="M91.807 40.091l-28.225-17.28-28.223 17.28h6.919V65.51h-2.504v3.024h-3.269v-15.92h-2.523v-1.323l-0.099-0.173C33.816 51 32.167 48.22 26.931 48.22c-3.521 0-5.416 1.255-6.304 2.114-0.888-0.859-2.782-2.114-6.304-2.114-5.236 0-6.886 2.78-6.953 2.898l-0.099 0.173v1.323H4.75V73.06h31.163 0.593H91.25v-4.525h-3.858V65.51h-2.504V40.091H91.807zM26.931 49.72c3.702 0 5.18 1.524 5.552 2.003v15.717c-1.063-0.741-2.819-1.498-5.552-1.498-2.733 0-4.489 0.757-5.554 1.498V51.725C21.757 51.237 23.236 49.72 26.931 49.72zM8.771 51.725c0.38-0.487 1.859-2.005 5.552-2.005 3.704 0 5.182 1.525 5.554 2.003v15.717c-1.064-0.741-2.82-1.498-5.554-1.498-2.732 0-4.488 0.757-5.552 1.498V51.725zM6.25 54.114h1.022L7.276 71.56H6.25V54.114zM8.668 69.592c0.054-0.088 1.35-2.15 5.655-2.15 3.714 0 5.188 1.532 5.558 2.012l0.001 2.106H7.479L8.668 69.592zM20.084 71.56l0.524-0.868 0.496 0.868H20.084zM21.377 71.56v-2.112c0.375-0.482 1.849-2.006 5.554-2.006 4.273 0 5.583 2.032 5.653 2.148l1.126 1.97H21.377zM35.006 71.56h-1.023V54.114h1.023V71.56zM43.778 40.091h4.553V65.51h-4.553V40.091zM77.335 65.51h-9.976V40.091h9.976V65.51zM65.859 65.51h-4.553V40.091h4.553V65.51zM59.807 65.51h-9.976V40.091h9.976V65.51zM89.75 70.034v1.525H37.413v-1.525h2.361 47.617H89.75zM85.892 67.01v1.524H41.274V67.01h1.004 7.553 9.976 7.553 9.976 7.553H85.892zM83.388 65.51h-4.553V40.091h4.553V65.51zM77.335 38.591h-9.976-7.553-9.976-7.553-1.597l22.9-14.021 22.902 14.021h-1.597H77.335z" fill="#6936f5" data-fill-palette-color="accent"></path><path d="M63.582 29.304c-2.082 0-3.775 1.694-3.775 3.777 0 2.081 1.693 3.774 3.775 3.774 2.083 0 3.777-1.693 3.777-3.774C67.359 30.998 65.665 29.304 63.582 29.304zM63.582 35.355c-1.255 0-2.275-1.021-2.275-2.274 0-1.256 1.021-2.277 2.275-2.277 1.256 0 2.277 1.021 2.277 2.277C65.859 34.335 64.838 35.355 63.582 35.355z" fill="#6936f5" data-fill-palette-color="accent"></path></svg></g></svg></g><g><rect width="100.98028488418059" height="6.687666928722316" y="94.79902556659353" x="294.5397151158194" fill="#6936f5" data-fill-palette-color="accent"></rect><rect width="100.98028488418059" height="6.687666928722316" y="94.79902556659353" x="0" fill="#6936f5" data-fill-palette-color="accent"></rect><rect width="100.98028488418059" height="6.687666928722316" y="81.4236917091489" x="294.5397151158194" fill="#6936f5" data-fill-palette-color="accent"></rect><rect width="100.98028488418059" height="6.687666928722316" y="81.4236917091489" x="0" fill="#6936f5" data-fill-palette-color="accent"></rect></g></svg></g><defs></defs></svg><rect width="395.52" height="194.1519174684273" fill="none" stroke="none" visibility="hidden"></rect></g></svg></g></svg>